<?xml version="1.0" standalone="no"?><!DOCTYPE svg PUBLIC "-//W3C//DTD SVG 1.1//EN" "http://www.w3.org/Graphics/SVG/1.1/DTD/svg11.dtd"><svg t="1498546038072" class="icon" style="" viewBox="0 0 1024 1024" version="1.1" xmlns="http://www.w3.org/2000/svg" p-id="995" xmlns:xlink="http://www.w3.org/1999/xlink" width="16" height="16"><defs><style type="text/css"></style></defs><path d="M739.555558 455.111111 739.555558 113.777778 113.777778 113.777778 113.777778 796.444442 408.569444 796.444442 300.691255 907.651853 64.090537 907.651853C28.91977 907.651853 0.395565 879.492339 0.379524 843.827539L0.028706 63.824316C0.012852 28.575119 28.391927 0 64.138692 0L789.194643 0C824.617466 0 853.333331 29.101888 853.333331 64.202189L853.333331 341.333333 739.555558 455.111111ZM853.333331 682.666669 853.333331 845.622611C853.333331 881.299994 824.513267 910.222221 788.733722 910.222221L625.777778 910.222221 853.333331 682.666669ZM625.777778 568.888889 227.555556 568.888889 227.555556 455.111111 625.777778 455.111111 625.777778 568.888889 625.777778 568.888889ZM625.777778 227.555556 625.777778 341.333333 227.555556 341.333333 227.555556 227.555556 625.777778 227.555556Z" p-id="996" fill="#eb9140"></path><path d="M907.264352 375.000966C919.912026 362.693905 940.12263 362.674701 952.689037 375.241102L1000.687782 423.239849C1013.127469 435.679534 1013.294931 455.413715 1000.311181 468.047798L571.311423 885.494202C558.663748 897.801261 538.453141 897.820467 525.88674 885.254067L477.887993 837.255315C465.448308 824.815635 465.280845 805.081453 478.264592 792.447366L907.264352 375.000966Z" p-id="997" fill="#eb9140"></path></svg>