<?xml version="1.0" standalone="no"?><!DOCTYPE svg PUBLIC "-//W3C//DTD SVG 1.1//EN" "http://www.w3.org/Graphics/SVG/1.1/DTD/svg11.dtd"><svg t="1498546277821" class="icon" style="" viewBox="0 0 1024 1024" version="1.1" xmlns="http://www.w3.org/2000/svg" p-id="2364" xmlns:xlink="http://www.w3.org/1999/xlink" width="64" height="64"><defs><style type="text/css"></style></defs><path d="M511.685845 64.076364c-247.25636 0-447.696462 200.440102-447.696462 447.696462s200.440102 447.696462 447.696462 447.696462 447.696462-200.440102 447.696462-447.696462S758.942205 64.076364 511.685845 64.076364zM805.643853 805.730834c-38.188764 38.188764-82.651418 68.167542-132.151809 89.104387-51.230802 21.668509-105.670691 32.655747-161.806199 32.655747-56.135508 0-110.575398-10.987239-161.806199-32.655747-49.500391-20.936845-93.962022-50.915623-132.150786-89.104387-38.188764-38.189787-68.168566-82.651418-89.105411-132.151809-21.668509-51.230802-32.655747-105.670691-32.655747-161.806199 0-56.135508 10.987239-110.575398 32.655747-161.806199 20.936845-49.500391 50.915623-93.962022 89.105411-132.150786s82.651418-68.168566 132.150786-89.105411c51.230802-21.668509 105.670691-32.655747 161.806199-32.655747 56.135508 0 110.575398 10.987239 161.806199 32.655747 49.500391 20.936845 93.960998 50.915623 132.151809 89.105411 38.188764 38.188764 68.167542 82.651418 89.104387 132.150786 21.668509 51.230802 32.655747 105.670691 32.655747 161.806199 0 56.135508-10.987239 110.575398-32.655747 161.806199C873.811396 723.080439 843.832617 767.54207 805.643853 805.730834z" p-id="2365" fill="#bfbfbf"></path><path d="M728.642109 497.823116 408.114978 322.261635c-0.038886-0.023536-0.079818-0.041956-0.118704-0.065492-0.36532-0.220011-0.738827-0.425695-1.122567-0.61603-0.138146-0.069585-0.277316-0.1361-0.417509-0.200568-0.299829-0.138146-0.603751-0.267083-0.913812-0.38681-0.230244-0.090051-0.461511-0.174985-0.693802-0.25378-0.215918-0.072655-0.433882-0.13917-0.654916-0.202615-0.334621-0.098237-0.671289-0.184195-1.00898-0.25992-0.125867-0.027629-0.25071-0.053212-0.3776-0.076748-0.445138-0.086981-0.8913-0.155543-1.338485-0.204661-0.036839-0.004093-0.073678-0.008186-0.11154-0.011256-5.907547-0.601704-11.918447 2.104941-15.244192 7.498788-1.822508 2.956332-2.551102 6.27082-2.325975 9.489118l0 350.696244c0 8.831132 7.15905 15.989159 15.989159 15.989159 1.698688 0 3.332908-0.270153 4.868891-0.760317 0.411369-0.125867 0.815575-0.275269 1.216711-0.445138 0.181125-0.074701 0.356111-0.159636 0.533143-0.240477 0.138146-0.064468 0.276293-0.12996 0.414439-0.199545 0.355087-0.173962 0.701988-0.35918 1.040702-0.558725 0.523933-0.296759 1.054005-0.61296 1.604544-0.950651l319.122131-174.729533c2.959402-1.818415 5.104251-4.449335 6.353708-7.42511C738.116901 511.083118 735.533053 502.07086 728.642109 497.823116zM415.766238 362.865401l271.870967 148.910495L415.766238 660.634202 415.766238 362.865401z" p-id="2366" fill="#bfbfbf"></path></svg>